<svg width="250" height="193" viewBox="0 0 250 193" fill="none" xmlns="http://www.w3.org/2000/svg">
<path d="M134.136 179.714C129.85 183 144.278 195.143 108.85 182.357C73.4927 169.571 59.0641 125 51.8498 100.429C44.6355 75.8572 63.9927 42.4286 76.7784 32.9286C89.5641 23.4286 113.136 19.5 115.778 19.1429C118.35 18.8572 121.993 17.2143 128.207 11C134.421 4.78573 154.064 -1.7857 168.207 1.14288C182.278 4.07145 217.35 37.5 240.564 84.7143C263.85 131.857 232.421 165.643 226.85 165.643C221.278 165.643 189.136 144 186.207 141.357C183.278 138.786 176.064 138.071 170.778 136.143C165.564 134.143 153.421 119.786 153.421 119.786C155.421 155.786 138.35 176.429 134.136 179.714Z" fill="#EAB363"/>
<path d="M120.35 184.286C112.778 184.286 93.1355 170.571 72.2069 141.714C51.2069 112.857 57.1355 72.5715 57.1355 72.5715C53.2069 133.857 124.636 181.357 124.636 181.357C124.636 181.357 127.85 184.286 120.35 184.286Z" fill="#8C5E28"/>
<path d="M170.778 136.143C165.564 134.143 153.421 119.786 153.421 119.786C153.421 119.786 147.85 60.7858 153.421 34.9286C158.993 9.00004 161.921 8.71433 165.85 17.2143C169.421 24.8572 170.564 107.643 182.921 139.571C179.421 138.286 174.564 137.571 170.778 136.143Z" fill="#E2942D"/>
<path d="M114.778 21.1429C114.778 21.1429 103.636 30.2857 101.35 31C99.0641 31.6429 73.1355 45.0715 65.9927 59.1429C58.7784 73.2143 63.3498 51.6429 70.8498 44.0715C78.4212 36.5715 97.0641 23.0715 114.778 21.1429Z" fill="#8C5E28"/>
<path d="M107.707 168.071C63.5641 192 11.2784 192.214 11.2784 192.214C17.1355 177.429 0.206947 152.357 0.206947 152.357C48.8498 157.5 80.8498 139.571 80.8498 139.571C81.9927 141.071 107.707 168.071 107.707 168.071Z" fill="#E6E6E6"/>
<path opacity="0.1" d="M107.707 168.071C94.2069 175.357 79.9927 180.429 66.7069 184C61.8498 166.643 50.5641 156.786 41.4927 151.5C66.1355 147.786 80.8498 139.571 80.8498 139.571C81.9927 141.071 107.707 168.071 107.707 168.071Z" fill="black"/>
<path d="M133.85 27.1429C126.921 40.3572 108.493 32.3572 112.636 32.1429C116.778 31.9286 129.207 14.8572 137.493 9.14286C145.85 3.42858 168.207 1.14286 170.707 4.71429C173.278 8.28572 166.136 8.85715 157.85 9.14286C149.493 9.35715 143.993 51.2857 143.993 51.2857C128.778 43.4286 140.778 13.9286 133.85 27.1429Z" fill="#F4CD9A"/>
</svg>
